<mxfile host="app.diagrams.net" modified="2024-03-29T17:04:47.204Z" agent="Mozilla/5.0 (X11; Linux x86_64) AppleWebKit/537.36 (KHTML, like Gecko) Chrome/123.0.0.0 Safari/537.36" version="24.2.1" etag="CHc5Rvm1N7gfBSr3IKzz" type="github">
  <diagram name="Page-1" id="2SQcHV0LjZ1DFPuqUDPG">
    <mxGraphModel>
      <root>
        <mxCell id="0" />
        <mxCell id="1" parent="0" />
      </root>
    </mxGraphModel>
  </diagram>
</mxfile>
